<?xml version="1.0" encoding="UTF-8" standalone="no"?>
<!DOCTYPE svg PUBLIC "-//W3C//DTD SVG 1.1//EN" "http://www.w3.org/Graphics/SVG/1.1/DTD/svg11.dtd">
<svg version="1.1" xmlns="http://www.w3.org/2000/svg" xmlns:xlink="http://www.w3.org/1999/xlink" preserveAspectRatio="xMidYMid meet" viewBox="0 0 65 35" width="65" height="35"><defs><path d="M17.41 17.16L17.99 13.65L6.85 13.65L6.27 17.16L17.41 17.16Z" id="a1eVpDwSw0"></path><linearGradient id="gradientajkkmDRZx" gradientUnits="userSpaceOnUse" x1="6.27" y1="15.41" x2="17.99" y2="15.41"><stop style="stop-color: #ffffff;stop-opacity: 1" offset="0%"></stop><stop style="stop-color: #888a8c;stop-opacity: 1" offset="100%"></stop></linearGradient><path d="M24.62 25.54L25.2 22.02L17.58 22.02L17 25.54L24.62 25.54Z" id="b1s3uU8LTc"></path><linearGradient id="gradientd9XPLDI0K" gradientUnits="userSpaceOnUse" x1="17" y1="23.78" x2="25.2" y2="23.78"><stop style="stop-color: #ffffff;stop-opacity: 1" offset="0%"></stop><stop style="stop-color: #888a8c;stop-opacity: 1" offset="100%"></stop></linearGradient><path d="M30.88 25.54L31.45 22.02L26.18 22.02L25.6 25.54L30.88 25.54Z" id="fWCPX7UG"></path><linearGradient id="gradientc1jI2TS7CP" gradientUnits="userSpaceOnUse" x1="25.6" y1="23.78" x2="31.45" y2="23.78"><stop style="stop-color: #ffffff;stop-opacity: 1" offset="0%"></stop><stop style="stop-color: #888a8c;stop-opacity: 1" offset="100%"></stop></linearGradient><path d="M32.95 12.98L33.53 9.46L28.25 9.46L27.67 12.98L32.95 12.98Z" id="a1UVxn2JSA"></path><linearGradient id="gradientaa5hmLWPI" gradientUnits="userSpaceOnUse" x1="27.67" y1="11.22" x2="33.53" y2="11.22"><stop style="stop-color: #ffffff;stop-opacity: 1" offset="0%"></stop><stop style="stop-color: #888a8c;stop-opacity: 1" offset="100%"></stop></linearGradient><path d="M36.46 5.27C36.4 5.63 35.93 8.44 35.88 8.79C28.97 8.79 22.07 8.79 15.16 8.79C15.2 8.56 15.4 7.38 15.74 5.27C24.95 5.27 31.85 5.27 36.46 5.27Z" id="alNZj8byW"></path><path d="M32.12 25.54C26.24 25.54 20.36 25.54 14.48 25.54C14.53 25.19 15 22.37 15.06 22.02C20.94 22.02 26.82 22.02 32.7 22.02C32.58 22.73 32.18 25.19 32.12 25.54Z" id="b3WJLaVmqi"></path><path d="M50.47 13.65L52.27 13.65L55.34 13.65L57.54 13.65L62.16 13.65L61.6 17.16L56.97 17.16L54.78 17.16L51.69 17.16L49.91 17.16L43.09 17.16L43.65 13.65L50.47 13.65Z" id="a1C1cBA5fq"></path><path d="M54.02 17.83L56.85 17.83L59.3 17.83L58.72 21.35L56.28 21.35L53.44 21.35L51 21.35L51.58 17.83L54.02 17.83Z" id="btcR19vH"></path><path d="M51.4 12.98C48.86 12.98 46.33 12.98 43.79 12.98C43.84 12.63 44.31 9.81 44.37 9.46C46.91 9.46 49.45 9.46 51.98 9.46C51.87 10.16 51.46 12.63 51.4 12.98Z" id="b13irbhqsX"></path><path d="M41.26 22.02L40.68 25.54L33.06 25.54L33.64 22.02L41.26 22.02Z" id="b1qZ2VYtsa"></path><path d="M32.25 9.46L41.63 9.46L43.39 9.46L42.81 12.98L41.05 12.98L31.67 12.98L24.83 12.98L25.41 9.46L32.25 9.46Z" id="f2AKqHGmB"></path><path d="M30 17.16C21.34 17.16 12.67 17.16 4.01 17.16C4.07 16.81 4.54 14 4.59 13.65C13.26 13.65 21.92 13.65 30.58 13.65C30.46 14.35 30.06 16.81 30 17.16Z" id="b2okZMS1qD"></path><path d="M42.7 13.65L42.12 17.16L30.98 17.16L31.56 13.65L42.7 13.65Z" id="c1lLatxvT7"></path><path d="M55.25 8.79C49.13 8.79 43.01 8.79 36.89 8.79C36.94 8.44 37.41 5.63 37.47 5.27C43.59 5.27 49.71 5.27 55.83 5.27C55.71 5.98 55.3 8.44 55.25 8.79Z" id="a23g7pKBF4"></path><path d="M50.6 17.83L50.02 21.35L42.4 21.35L42.98 17.83L50.6 17.83Z" id="c165Qhyelg"></path><path d="M49.91 22.02L49.33 25.54L41.71 25.54L42.29 22.02L49.91 22.02Z" id="g2jALWnzid"></path><path d="M56.16 22.02L55.58 25.54L50.31 25.54L50.89 22.02L56.16 22.02Z" id="c5Yie9ACf0"></path><path d="M42 17.83L41.42 21.35L33.81 21.35L34.38 17.83L42 17.83Z" id="c1lW0sptfu"></path><path d="M58.24 9.46L57.66 12.98L52.38 12.98L52.96 9.46L58.24 9.46Z" id="hs1AbIYR2"></path><path d="M49.22 26.21L48.64 29.72L41.02 29.72L41.6 26.21L49.22 26.21Z" id="blRnfOREH"></path><path d="M40.62 26.21C40.56 26.56 40.1 29.37 40.04 29.73C33.86 29.73 27.67 29.73 21.48 29.73C21.52 29.49 21.71 28.32 22.06 26.21C30.31 26.21 36.5 26.21 40.62 26.21Z" id="bb7urmi3T"></path></defs><g><g><g><use xlink:href="#a1eVpDwSw0" opacity="1" fill="url(#gradientajkkmDRZx)"></use><g><use xlink:href="#a1eVpDwSw0" opacity="1" fill-opacity="0" stroke="#000000" stroke-width="1" stroke-opacity="0"></use></g></g><g><use xlink:href="#b1s3uU8LTc" opacity="1" fill="url(#gradientd9XPLDI0K)"></use><g><use xlink:href="#b1s3uU8LTc" opacity="1" fill-opacity="0" stroke="#000000" stroke-width="1" stroke-opacity="0"></use></g></g><g><use xlink:href="#fWCPX7UG" opacity="1" fill="url(#gradientc1jI2TS7CP)"></use><g><use xlink:href="#fWCPX7UG" opacity="1" fill-opacity="0" stroke="#000000" stroke-width="1" stroke-opacity="0"></use></g></g><g><use xlink:href="#a1UVxn2JSA" opacity="1" fill="url(#gradientaa5hmLWPI)"></use><g><use xlink:href="#a1UVxn2JSA" opacity="1" fill-opacity="0" stroke="#000000" stroke-width="1" stroke-opacity="0"></use></g></g><g><use xlink:href="#alNZj8byW" opacity="1" fill="#ee3524" fill-opacity="1"></use><g><use xlink:href="#alNZj8byW" opacity="1" fill-opacity="0" stroke="#000000" stroke-width="1" stroke-opacity="0"></use></g></g><g><use xlink:href="#b3WJLaVmqi" opacity="1" fill="#ee3524" fill-opacity="1"></use><g><use xlink:href="#b3WJLaVmqi" opacity="1" fill-opacity="0" stroke="#000000" stroke-width="1" stroke-opacity="0"></use></g></g><g><use xlink:href="#a1C1cBA5fq" opacity="1" fill="#ee3524" fill-opacity="1"></use><g><use xlink:href="#a1C1cBA5fq" opacity="1" fill-opacity="0" stroke="#000000" stroke-width="1" stroke-opacity="0"></use></g></g><g><use xlink:href="#btcR19vH" opacity="1" fill="#ee3524" fill-opacity="1"></use><g><use xlink:href="#btcR19vH" opacity="1" fill-opacity="0" stroke="#000000" stroke-width="1" stroke-opacity="0"></use></g></g><g><use xlink:href="#b13irbhqsX" opacity="1" fill="#ee3524" fill-opacity="1"></use><g><use xlink:href="#b13irbhqsX" opacity="1" fill-opacity="0" stroke="#000000" stroke-width="1" stroke-opacity="0"></use></g></g><g><use xlink:href="#b1qZ2VYtsa" opacity="1" fill="#ee3524" fill-opacity="1"></use><g><use xlink:href="#b1qZ2VYtsa" opacity="1" fill-opacity="0" stroke="#000000" stroke-width="1" stroke-opacity="0"></use></g></g><g><use xlink:href="#f2AKqHGmB" opacity="1" fill="#000000" fill-opacity="1"></use><g><use xlink:href="#f2AKqHGmB" opacity="1" fill-opacity="0" stroke="#000000" stroke-width="1" stroke-opacity="0"></use></g></g><g><use xlink:href="#b2okZMS1qD" opacity="1" fill="#000000" fill-opacity="1"></use><g><use xlink:href="#b2okZMS1qD" opacity="1" fill-opacity="0" stroke="#000000" stroke-width="1" stroke-opacity="0"></use></g></g><g><use xlink:href="#c1lLatxvT7" opacity="1" fill="#000000" fill-opacity="1"></use><g><use xlink:href="#c1lLatxvT7" opacity="1" fill-opacity="0" stroke="#000000" stroke-width="1" stroke-opacity="0"></use></g></g><g><use xlink:href="#a23g7pKBF4" opacity="1" fill="#000000" fill-opacity="1"></use><g><use xlink:href="#a23g7pKBF4" opacity="1" fill-opacity="0" stroke="#000000" stroke-width="1" stroke-opacity="0"></use></g></g><g><use xlink:href="#c165Qhyelg" opacity="1" fill="#000000" fill-opacity="1"></use><g><use xlink:href="#c165Qhyelg" opacity="1" fill-opacity="0" stroke="#000000" stroke-width="1" stroke-opacity="0"></use></g></g><g><use xlink:href="#g2jALWnzid" opacity="1" fill="#000000" fill-opacity="1"></use><g><use xlink:href="#g2jALWnzid" opacity="1" fill-opacity="0" stroke="#000000" stroke-width="1" stroke-opacity="0"></use></g></g><g><use xlink:href="#c5Yie9ACf0" opacity="1" fill="#000000" fill-opacity="1"></use><g><use xlink:href="#c5Yie9ACf0" opacity="1" fill-opacity="0" stroke="#000000" stroke-width="1" stroke-opacity="0"></use></g></g><g><use xlink:href="#c1lW0sptfu" opacity="1" fill="#000000" fill-opacity="1"></use><g><use xlink:href="#c1lW0sptfu" opacity="1" fill-opacity="0" stroke="#000000" stroke-width="1" stroke-opacity="0"></use></g></g><g><use xlink:href="#hs1AbIYR2" opacity="1" fill="#000000" fill-opacity="1"></use><g><use xlink:href="#hs1AbIYR2" opacity="1" fill-opacity="0" stroke="#000000" stroke-width="1" stroke-opacity="0"></use></g></g><g><use xlink:href="#blRnfOREH" opacity="1" fill="#000000" fill-opacity="1"></use><g><use xlink:href="#blRnfOREH" opacity="1" fill-opacity="0" stroke="#000000" stroke-width="1" stroke-opacity="0"></use></g></g><g><use xlink:href="#bb7urmi3T" opacity="1" fill="#000000" fill-opacity="1"></use><g><use xlink:href="#bb7urmi3T" opacity="1" fill-opacity="0" stroke="#000000" stroke-width="1" stroke-opacity="0"></use></g></g></g></g></svg>