<svg xmlns="http://www.w3.org/2000/svg" xmlns:xlink="http://www.w3.org/1999/xlink" viewBox="0 0 144 144"><defs><style>.a{fill:none;}.b{isolation:isolate;}.c{clip-path:url(#a);}.d,.e{fill:#be1717;}.e,.g{mix-blend-mode:multiply;}.f{fill:#fff;}</style><clipPath id="a"><rect class="a" width="144" height="144"/></clipPath></defs><g class="b"><g class="c"><rect class="d" width="144" height="144"/><polyline class="e" points="114.19 26.13 144 56 144 144 52.44 144 10.47 102.13 13 76 26.63 74.13 34.57 82.23 37.33 82.13 39 84 48.06 82.9 55.32 90.19 59.24 82.84 30.05 53.68 35.28 49.08 70.54 84.27 70.62 83.38 41.28 54.13 48.08 26.13 61 39 66.48 26.13 72.93 32.57 83 28 89.04 26.13 93 30 114.19 26.87 114.19 26.87 114.19 26.87 114.19 26.87"/><path class="f" d="M32.59,54.62a3.6,3.6,0,0,1-2.54-.94,3,3,0,0,1-1-2.3,2.93,2.93,0,0,1,1-2.31,3.91,3.91,0,0,1,2.61-.89,3.75,3.75,0,0,1,2.59.9,3.16,3.16,0,0,1,0,4.63A3.86,3.86,0,0,1,32.59,54.62Z"/><path class="f" d="M66.48,54.13H60.11L48.57,36.54a25.12,25.12,0,0,1-1.41-2.33h-.08c.11,1,.16,2.5.16,4.53V54.13h-6v-28h6.8L59.19,43.18c.51.76,1,1.53,1.41,2.28h.08a28.62,28.62,0,0,1-.16-3.85V26.12h6Z"/><path class="f" d="M89.68,54.13H72.88v-28H89v5.14H79.19v6.23h9.16v5.12H79.19V49H89.68Z"/><path class="f" d="M114.19,31.26h-8V54.13H99.88V31.26H91.93V26.12h22.26Z"/><path class="f" d="M27.27,102.13H10.47v-28H26.62v5.14H16.78v6.23h9.16v5.12H16.78V97H27.27Z"/><path class="f" d="M50.47,102.13H44.32V91q0-4.65-3.32-4.65a3.3,3.3,0,0,0-2.64,1.23,4.69,4.69,0,0,0-1,3.13v11.4H31.16v-20h6.17V85.3h.08a7.06,7.06,0,0,1,6.42-3.66q6.64,0,6.64,8.25Z"/><path class="f" d="M75,99.85q0,5.57-3.22,8.62t-9.33,3.06A14.94,14.94,0,0,1,56,110.38v-5.2a12.25,12.25,0,0,0,6.23,1.8,6.7,6.7,0,0,0,4.84-1.65,5.92,5.92,0,0,0,1.72-4.49V99.26h-.08a6.88,6.88,0,0,1-6.23,3.36,7.51,7.51,0,0,1-6.07-2.69,10.93,10.93,0,0,1-2.25-7.23,12.21,12.21,0,0,1,2.5-8.07,8.18,8.18,0,0,1,6.59-3,6.06,6.06,0,0,1,5.46,2.82h.08V82.13H75Zm-6.09-7.33V90.94a4.85,4.85,0,0,0-1.12-3.23,3.64,3.64,0,0,0-2.92-1.34A3.78,3.78,0,0,0,61.61,88a7.47,7.47,0,0,0-1.18,4.51,6.32,6.32,0,0,0,1.12,4,3.61,3.61,0,0,0,3,1.45,3.79,3.79,0,0,0,3.1-1.47A6,6,0,0,0,68.87,92.52Z"/><path class="f" d="M83.25,79A3.58,3.58,0,0,1,80.69,78a3,3,0,0,1-1-2.27,2.87,2.87,0,0,1,1-2.27,4.16,4.16,0,0,1,5.12,0,2.9,2.9,0,0,1,1,2.27,3,3,0,0,1-1,2.3A3.64,3.64,0,0,1,83.25,79Zm3,23.16H80.12v-20h6.17Z"/><path class="f" d="M110.8,102.13h-6.15V91c0-3.1-1.1-4.65-3.32-4.65A3.28,3.28,0,0,0,98.7,87.6a4.64,4.64,0,0,0-1,3.13v11.4H91.49v-20h6.17V85.3h.08a7.06,7.06,0,0,1,6.42-3.66q6.65,0,6.64,8.25Z"/><path class="f" d="M133.66,93.89h-13c.21,2.9,2,4.36,5.49,4.36a10.65,10.65,0,0,0,5.8-1.57v4.46a15.24,15.24,0,0,1-7.21,1.48c-3.23,0-5.73-.89-7.52-2.68a10.16,10.16,0,0,1-2.67-7.49,10.71,10.71,0,0,1,2.89-7.9,9.61,9.61,0,0,1,7.11-2.91,8.73,8.73,0,0,1,6.76,2.6,10,10,0,0,1,2.4,7.05Zm-5.73-3.79c0-2.86-1.16-4.3-3.47-4.3A3.3,3.3,0,0,0,121.89,87a5.62,5.62,0,0,0-1.32,3.06Z"/><g class="g"><path class="d" d="M32.59,54.62a3.6,3.6,0,0,1-2.54-.94,3,3,0,0,1-1-2.3,2.93,2.93,0,0,1,1-2.31,3.91,3.91,0,0,1,2.61-.89,3.75,3.75,0,0,1,2.59.9,3.16,3.16,0,0,1,0,4.63A3.86,3.86,0,0,1,32.59,54.62Z"/><path class="d" d="M66.48,54.13H60.11L48.57,36.54a25.12,25.12,0,0,1-1.41-2.33h-.08c.11,1,.16,2.5.16,4.53V54.13h-6v-28h6.8L59.19,43.18c.51.76,1,1.53,1.41,2.28h.08a28.62,28.62,0,0,1-.16-3.85V26.12h6Z"/><path class="d" d="M89.68,54.13H72.88v-28H89v5.14H79.19v6.23h9.16v5.12H79.19V49H89.68Z"/><path class="d" d="M114.19,31.26h-8V54.13H99.88V31.26H91.93V26.12h22.26Z"/><path class="d" d="M27.27,102.13H10.47v-28H26.62v5.14H16.78v6.23h9.16v5.12H16.78V97H27.27Z"/><path class="d" d="M50.47,102.13H44.32V91q0-4.65-3.32-4.65a3.3,3.3,0,0,0-2.64,1.23,4.69,4.69,0,0,0-1,3.13v11.4H31.16v-20h6.17V85.3h.08a7.06,7.06,0,0,1,6.42-3.66q6.64,0,6.64,8.25Z"/><path class="d" d="M75,99.85q0,5.57-3.22,8.62t-9.33,3.06A14.94,14.94,0,0,1,56,110.38v-5.2a12.25,12.25,0,0,0,6.23,1.8,6.7,6.7,0,0,0,4.84-1.65,5.92,5.92,0,0,0,1.72-4.49V99.26h-.08a6.88,6.88,0,0,1-6.23,3.36,7.51,7.51,0,0,1-6.07-2.69,10.93,10.93,0,0,1-2.25-7.23,12.21,12.21,0,0,1,2.5-8.07,8.18,8.18,0,0,1,6.59-3,6.06,6.06,0,0,1,5.46,2.82h.08V82.13H75Zm-6.09-7.33V90.94a4.85,4.85,0,0,0-1.12-3.23,3.64,3.64,0,0,0-2.92-1.34A3.78,3.78,0,0,0,61.61,88a7.47,7.47,0,0,0-1.18,4.51,6.32,6.32,0,0,0,1.12,4,3.61,3.61,0,0,0,3,1.45,3.79,3.79,0,0,0,3.1-1.47A6,6,0,0,0,68.87,92.52Z"/><path class="d" d="M83.25,79A3.58,3.58,0,0,1,80.69,78a3,3,0,0,1-1-2.27,2.87,2.87,0,0,1,1-2.27,4.16,4.16,0,0,1,5.12,0,2.9,2.9,0,0,1,1,2.27,3,3,0,0,1-1,2.3A3.64,3.64,0,0,1,83.25,79Zm3,23.16H80.12v-20h6.17Z"/><path class="d" d="M110.8,102.13h-6.15V91c0-3.1-1.1-4.65-3.32-4.65A3.28,3.28,0,0,0,98.7,87.6a4.64,4.64,0,0,0-1,3.13v11.4H91.49v-20h6.17V85.3h.08a7.06,7.06,0,0,1,6.42-3.66q6.65,0,6.64,8.25Z"/><path class="d" d="M133.66,93.89h-13c.21,2.9,2,4.36,5.49,4.36a10.65,10.65,0,0,0,5.8-1.57v4.46a15.24,15.24,0,0,1-7.21,1.48c-3.23,0-5.73-.89-7.52-2.68a10.16,10.16,0,0,1-2.67-7.49,10.71,10.71,0,0,1,2.89-7.9,9.61,9.61,0,0,1,7.11-2.91,8.73,8.73,0,0,1,6.76,2.6,10,10,0,0,1,2.4,7.05Zm-5.73-3.79c0-2.86-1.16-4.3-3.47-4.3A3.3,3.3,0,0,0,121.89,87a5.62,5.62,0,0,0-1.32,3.06Z"/></g><path class="f" d="M32.59,54.62a3.6,3.6,0,0,1-2.54-.94,3,3,0,0,1-1-2.3,2.93,2.93,0,0,1,1-2.31,3.91,3.91,0,0,1,2.61-.89,3.75,3.75,0,0,1,2.59.9,3.16,3.16,0,0,1,0,4.63A3.86,3.86,0,0,1,32.59,54.62Z"/><path class="f" d="M66.48,54.13H60.11L48.57,36.54a25.12,25.12,0,0,1-1.41-2.33h-.08c.11,1,.16,2.5.16,4.53V54.13h-6v-28h6.8L59.19,43.18c.51.76,1,1.53,1.41,2.28h.08a28.62,28.62,0,0,1-.16-3.85V26.12h6Z"/><path class="f" d="M89.68,54.13H72.88v-28H89v5.14H79.19v6.23h9.16v5.12H79.19V49H89.68Z"/><path class="f" d="M114.19,31.26h-8V54.13H99.88V31.26H91.93V26.12h22.26Z"/><path class="f" d="M27.27,102.13H10.47v-28H26.62v5.14H16.78v6.23h9.16v5.12H16.78V97H27.27Z"/><path class="f" d="M50.47,102.13H44.32V91q0-4.65-3.32-4.65a3.3,3.3,0,0,0-2.64,1.23,4.69,4.69,0,0,0-1,3.13v11.4H31.16v-20h6.17V85.3h.08a7.06,7.06,0,0,1,6.42-3.66q6.64,0,6.64,8.25Z"/><path class="f" d="M75,99.85q0,5.57-3.22,8.62t-9.33,3.06A14.94,14.94,0,0,1,56,110.38v-5.2a12.25,12.25,0,0,0,6.23,1.8,6.7,6.7,0,0,0,4.84-1.65,5.92,5.92,0,0,0,1.72-4.49V99.26h-.08a6.88,6.88,0,0,1-6.23,3.36,7.51,7.51,0,0,1-6.07-2.69,10.93,10.93,0,0,1-2.25-7.23,12.21,12.21,0,0,1,2.5-8.07,8.18,8.18,0,0,1,6.59-3,6.06,6.06,0,0,1,5.46,2.82h.08V82.13H75Zm-6.09-7.33V90.94a4.85,4.85,0,0,0-1.12-3.23,3.64,3.64,0,0,0-2.92-1.34A3.78,3.78,0,0,0,61.61,88a7.47,7.47,0,0,0-1.18,4.51,6.32,6.32,0,0,0,1.12,4,3.61,3.61,0,0,0,3,1.45,3.79,3.79,0,0,0,3.1-1.47A6,6,0,0,0,68.87,92.52Z"/><path class="f" d="M83.25,79A3.58,3.58,0,0,1,80.69,78a3,3,0,0,1-1-2.27,2.87,2.87,0,0,1,1-2.27,4.16,4.16,0,0,1,5.12,0,2.9,2.9,0,0,1,1,2.27,3,3,0,0,1-1,2.3A3.64,3.64,0,0,1,83.25,79Zm3,23.16H80.12v-20h6.17Z"/><path class="f" d="M110.8,102.13h-6.15V91c0-3.1-1.1-4.65-3.32-4.65A3.28,3.28,0,0,0,98.7,87.6a4.64,4.64,0,0,0-1,3.13v11.4H91.49v-20h6.17V85.3h.08a7.06,7.06,0,0,1,6.42-3.66q6.65,0,6.64,8.25Z"/><path class="f" d="M133.66,93.89h-13c.21,2.9,2,4.36,5.49,4.36a10.65,10.65,0,0,0,5.8-1.57v4.46a15.24,15.24,0,0,1-7.21,1.48c-3.23,0-5.73-.89-7.52-2.68a10.16,10.16,0,0,1-2.67-7.49,10.71,10.71,0,0,1,2.89-7.9,9.61,9.61,0,0,1,7.11-2.91,8.73,8.73,0,0,1,6.76,2.6,10,10,0,0,1,2.4,7.05Zm-5.73-3.79c0-2.86-1.16-4.3-3.47-4.3A3.3,3.3,0,0,0,121.89,87a5.62,5.62,0,0,0-1.32,3.06Z"/><rect class="e" y="133" width="144" height="11"/></g></g></svg>